<svg width="77" height="81" viewBox="0 0 77 81" fill="none" xmlns="http://www.w3.org/2000/svg">
<path id="Subtract" fill-rule="evenodd" clip-rule="evenodd" d="M4.45673 16.0432C4.88293 9.2982 10.4885 3.95949 17.341 3.95949H20.7282V0.270835H17.341C8.45082 0.270835 1.19302 7.25984 0.762283 16.0432H4.45673ZM73.2832 16.0432C72.857 9.2982 67.2514 3.95949 60.3989 3.95949H57.0117V0.270835H60.3989C69.2891 0.270835 76.5469 7.25984 76.9776 16.0432H73.2832ZM76.9775 64.4213H73.283C72.8559 71.1653 67.2507 76.503 60.3989 76.503H59.0022V80.1916H60.3989C69.2884 80.1916 76.5458 73.2037 76.9775 64.4213ZM4.45686 64.4213H0.762375C1.19411 73.2037 8.45149 80.1916 17.341 80.1916H21.3537V76.503H17.341C10.4892 76.503 4.88403 71.1653 4.45686 64.4213Z" fill="#83895C"/>
</svg>
