<svg width="32" height="36" viewBox="0 0 32 36" fill="none" xmlns="http://www.w3.org/2000/svg">
<path d="M21.8046 27.1181C21.7525 26.5322 21.7199 25.9462 21.7069 25.3603C21.7069 24.7613 21.7004 24.1624 21.6874 23.5634H21.4139C21.0103 23.5634 20.561 23.6285 20.0662 23.7587C19.5845 23.8759 19.1222 24.0582 18.6795 24.3056C18.2368 24.553 17.8722 24.8655 17.5857 25.2431C17.3123 25.6077 17.1756 26.0309 17.1756 26.5127C17.1756 27.1377 17.3514 27.6129 17.7029 27.9385C18.0545 28.251 18.5298 28.4072 19.1287 28.4072C19.4152 28.4072 19.7277 28.3421 20.0662 28.2119C20.4048 28.0687 20.7303 27.8994 21.0428 27.7041C21.3553 27.5088 21.6092 27.3134 21.8046 27.1181ZM25.2226 28.3681C25.2226 28.4202 25.2161 28.4593 25.203 28.4853C25.0728 28.7718 24.8515 28.9932 24.539 29.1494C24.2395 29.2926 23.94 29.3643 23.6405 29.3643C23.0936 29.3643 22.6965 29.208 22.4491 28.8955C22.2147 28.57 22.0259 28.1728 21.8827 27.7041C21.3879 28.1598 20.841 28.5439 20.242 28.8564C19.6431 29.1559 18.9985 29.3057 18.3084 29.3057C17.8266 29.3057 17.3709 29.2145 16.9412 29.0322C16.5245 28.8369 16.186 28.557 15.9256 28.1924C15.6651 27.8278 15.5349 27.3851 15.5349 26.8642C15.5349 26.3173 15.6716 25.8486 15.9451 25.4579C16.2315 25.0543 16.5896 24.7157 17.0193 24.4423C17.462 24.1558 17.9308 23.928 18.4256 23.7587C18.9334 23.5764 19.4087 23.4397 19.8514 23.3485C20.1509 23.2834 20.4569 23.2248 20.7694 23.1728C21.0819 23.1207 21.3879 23.0686 21.6874 23.0165C21.6874 22.6519 21.6678 22.2287 21.6288 21.747C21.6027 21.2652 21.5051 20.868 21.3358 20.5555C21.1665 20.256 20.9387 19.9891 20.6522 19.7547C20.3657 19.5204 20.0467 19.4032 19.6951 19.4032C19.0962 19.4032 18.6274 19.5594 18.2889 19.8719C17.9503 20.1844 17.7094 20.6271 17.5662 21.2001C17.5532 21.2652 17.5402 21.3368 17.5271 21.4149C17.5271 21.48 17.5206 21.5451 17.5076 21.6102C17.4946 21.6884 17.4425 21.76 17.3514 21.8251C17.2732 21.8772 17.1886 21.9032 17.0974 21.9032C16.85 21.9032 16.6222 21.8446 16.4138 21.7274C16.2185 21.6102 16.1209 21.4149 16.1209 21.1415C16.1209 20.9852 16.1469 20.8485 16.199 20.7313C16.3683 20.3277 16.6417 19.9956 17.0193 19.7352C17.3969 19.4618 17.8136 19.2534 18.2693 19.1102C18.7381 18.967 19.1743 18.8953 19.578 18.8953C20.2811 18.8953 20.9191 19.0256 21.492 19.286C22.065 19.5464 22.5207 19.9305 22.8593 20.4383C23.2108 20.9331 23.3866 21.5581 23.3866 22.3134C23.3866 23.1597 23.3801 24.0126 23.3671 24.872C23.3671 25.7314 23.3931 26.5908 23.4452 27.4502C23.4582 27.7366 23.5168 27.9905 23.621 28.2119C23.7252 28.4202 23.94 28.5244 24.2655 28.5244C24.4348 28.5244 24.6106 28.4853 24.7929 28.4072C24.9882 28.3161 25.1119 28.2705 25.164 28.2705C25.203 28.2705 25.2226 28.303 25.2226 28.3681Z" fill="white"/>
<path fill-rule="evenodd" clip-rule="evenodd" d="M9.63125 16.4151C9.75833 14.4055 11.4285 12.8149 13.4702 12.8149H14.4795V11.7158H13.4702C10.8214 11.7158 8.65889 13.7982 8.53045 16.4151H9.63125ZM30.1387 16.4151C30.0116 14.4055 28.3414 12.8149 26.2997 12.8149H25.2905V11.7158H26.2997C28.9486 11.7158 31.1111 13.7982 31.2395 16.4151H30.1387ZM31.2395 30.8299H30.1387C30.0115 32.8394 28.3414 34.4299 26.2997 34.4299H25.8836V35.529H26.2997C28.9485 35.529 31.1109 33.4467 31.2395 30.8299ZM9.63126 30.8299H8.53046C8.659 33.4467 10.8214 35.529 13.4702 35.529H14.6659V34.4299H13.4702C11.4286 34.4299 9.75845 32.8394 9.63126 30.8299Z" fill="#FFFBFB"/>
</svg>
